REM DIRINDEX 1\2,1\3
REM DIRNAME folder01,folder02,folder03
TITLE ""
FILE "CD2Track07.mp3" MP3
  TRACK 01 AUDIO
    TITLE "0:"
    INDEX 01 00:00:00
  TRACK 02 AUDIO
    TITLE "2:cjc102_2475"
    INDEX 01 00:00:23
  TRACK 03 AUDIO
    TITLE "0:"
    INDEX 01 00:01:07
  TRACK 04 AUDIO
    TITLE "3:cjc102_2476"
    INDEX 01 00:01:09
  TRACK 05 AUDIO
    TITLE "0:"
    INDEX 01 00:02:28
  TRACK 06 AUDIO
    TITLE "3:cjc102_2477"
    INDEX 01 00:02:34
  TRACK 07 AUDIO
    TITLE "0:"
    INDEX 01 00:06:41
  TRACK 08 AUDIO
    TITLE "2:cjc102_2478"
    INDEX 01 00:06:45
  TRACK 09 AUDIO
    TITLE "0:"
    INDEX 01 00:07:56
  TRACK 10 AUDIO
    TITLE "3:cjc102_2479"
    INDEX 01 00:08:44
  TRACK 11 AUDIO
    TITLE "0:"
    INDEX 01 00:09:40
  TRACK 12 AUDIO
    TITLE "2:cjc102_2480"
    INDEX 01 00:10:04
  TRACK 13 AUDIO
    TITLE "0:"
    INDEX 01 00:11:09
  TRACK 14 AUDIO
    TITLE "3:cjc102_2481"
    INDEX 01 00:11:11
  TRACK 15 AUDIO
    TITLE "0:"
    INDEX 01 00:11:68
  TRACK 16 AUDIO
    TITLE "2:cjc102_2482"
    INDEX 01 00:12:36
  TRACK 17 AUDIO
    TITLE "0:"
    INDEX 01 00:13:43
  TRACK 18 AUDIO
    TITLE "3:cjc102_2483"
    INDEX 01 00:14:17
  TRACK 19 AUDIO
    TITLE "0:"
    INDEX 01 00:15:19
  TRACK 20 AUDIO
    TITLE "2:cjc102_2484"
    INDEX 01 00:15:54
  TRACK 21 AUDIO
    TITLE "0:"
    INDEX 01 00:16:73
  TRACK 22 AUDIO
    TITLE "3:cjc102_2485"
    INDEX 01 00:17:31
  TRACK 23 AUDIO
    TITLE "0:"
    INDEX 01 00:18:29
  TRACK 24 AUDIO
    TITLE "2:cjc102_2486"
    INDEX 01 00:18:74
  TRACK 25 AUDIO
    TITLE "0:"
    INDEX 01 00:20:14
  TRACK 26 AUDIO
    TITLE "3:cjc102_2487"
    INDEX 01 00:20:47
  TRACK 27 AUDIO
    TITLE "0:"
    INDEX 01 00:21:25
  TRACK 28 AUDIO
    TITLE "2:cjc102_2488"
    INDEX 01 00:22:07
  TRACK 29 AUDIO
    TITLE "0:"
    INDEX 01 00:23:16
  TRACK 30 AUDIO
    TITLE "3:cjc102_2489"
    INDEX 01 00:24:16
  TRACK 31 AUDIO
    TITLE "0:"
    INDEX 01 00:25:13
  TRACK 32 AUDIO
    TITLE "2:cjc102_2490"
    INDEX 01 00:25:50
  TRACK 33 AUDIO
    TITLE "0:"
    INDEX 01 00:26:62
  TRACK 34 AUDIO
    TITLE "3:cjc102_2491"
    INDEX 01 00:27:45
  TRACK 35 AUDIO
    TITLE "0:"
    INDEX 01 00:28:37
  TRACK 36 AUDIO
    TITLE "2:cjc102_2492"
    INDEX 01 00:28:70
  TRACK 37 AUDIO
    TITLE "0:"
    INDEX 01 00:30:01
  TRACK 38 AUDIO
    TITLE "3:cjc102_2493"
    INDEX 01 00:31:22
  TRACK 39 AUDIO
    TITLE "0:"
    INDEX 01 00:32:17
  TRACK 40 AUDIO
    TITLE "2:cjc102_2494"
    INDEX 01 00:32:27
  TRACK 41 AUDIO
    TITLE "0:"
    INDEX 01 00:33:44
  TRACK 42 AUDIO
    TITLE "3:cjc102_2495"
    INDEX 01 00:34:20
  TRACK 43 AUDIO
    TITLE "0:"
    INDEX 01 00:35:14
  TRACK 44 AUDIO
    TITLE "2:cjc102_2496"
    INDEX 01 00:35:47
  TRACK 45 AUDIO
    TITLE "0:"
    INDEX 01 00:36:52
  TRACK 46 AUDIO
    TITLE "3:cjc102_2497"
    INDEX 01 00:37:14
  TRACK 47 AUDIO
    TITLE "0:"
    INDEX 01 00:38:10
  TRACK 48 AUDIO
    TITLE "2:cjc102_2498"
    INDEX 01 00:38:61
  TRACK 49 AUDIO
    TITLE "0:"
    INDEX 01 00:40:01
  TRACK 50 AUDIO
    TITLE "3:cjc102_2499"
    INDEX 01 00:40:40
  TRACK 51 AUDIO
    TITLE "0:"
    INDEX 01 00:41:55
  TRACK 52 AUDIO
    TITLE "2:cjc102_2500"
    INDEX 01 00:42:19
  TRACK 53 AUDIO
    TITLE "0:"
    INDEX 01 00:43:25
  TRACK 54 AUDIO
    TITLE "3:cjc102_2501"
    INDEX 01 00:44:09
  TRACK 55 AUDIO
    TITLE "0:"
    INDEX 01 00:45:20
  TRACK 56 AUDIO
    TITLE "2:cjc102_2502"
    INDEX 01 00:45:49
  TRACK 57 AUDIO
    TITLE "0:"
    INDEX 01 00:46:58
  TRACK 58 AUDIO
    TITLE "3:cjc102_2503"
    INDEX 01 00:47:38
  TRACK 59 AUDIO
    TITLE "0:"
    INDEX 01 00:48:59
  TRACK 60 AUDIO
    TITLE "2:cjc102_2504"
    INDEX 01 00:49:33
  TRACK 61 AUDIO
    TITLE "0:"
    INDEX 01 00:50:44
  TRACK 62 AUDIO
    TITLE "3:cjc102_2505"
    INDEX 01 00:51:11
  TRACK 63 AUDIO
    TITLE "0:"
    INDEX 01 00:52:28
  TRACK 64 AUDIO
    TITLE "2:cjc102_2506"
    INDEX 01 00:52:63
  TRACK 65 AUDIO
    TITLE "0:"
    INDEX 01 00:53:70
  TRACK 66 AUDIO
    TITLE "3:cjc102_2507"
    INDEX 01 00:54:58
  TRACK 67 AUDIO
    TITLE "0:"
    INDEX 01 00:55:67
  TRACK 68 AUDIO
    TITLE "2:cjc102_2508"
    INDEX 01 00:56:10
  TRACK 69 AUDIO
    TITLE "0:"
    INDEX 01 00:57:13
  TRACK 70 AUDIO
    TITLE "3:cjc102_2509"
    INDEX 01 00:58:18
  TRACK 71 AUDIO
    TITLE "0:"
    INDEX 01 00:59:28
  TRACK 72 AUDIO
    TITLE "2:cjc102_2510"
    INDEX 01 00:59:61
  TRACK 73 AUDIO
    TITLE "0:"
    INDEX 01 01:00:68
  TRACK 74 AUDIO
    TITLE "3:cjc102_2511"
    INDEX 01 01:02:48
  TRACK 75 AUDIO
    TITLE "0:"
    INDEX 01 01:03:67
  TRACK 76 AUDIO
    TITLE "2:cjc102_2512"
    INDEX 01 01:04:11
  TRACK 77 AUDIO
    TITLE "0:"
    INDEX 01 01:05:28
  TRACK 78 AUDIO
    TITLE "2:cjc102_2513"
    INDEX 01 01:05:62
  TRACK 79 AUDIO
    TITLE "0:"
    INDEX 01 01:07:14
  TRACK 80 AUDIO
    TITLE "3:cjc102_2514"
    INDEX 01 01:08:31
  TRACK 81 AUDIO
    TITLE "0:"
    INDEX 01 01:09:56
  TRACK 82 AUDIO
    TITLE "2:cjc102_2515"
    INDEX 01 01:09:69
  TRACK 83 AUDIO
    TITLE "0:"
    INDEX 01 01:11:13
  TRACK 84 AUDIO
    TITLE "2:cjc102_2516"
    INDEX 01 01:11:43
  TRACK 85 AUDIO
    TITLE "0:"
    INDEX 01 01:12:68
  TRACK 86 AUDIO
    TITLE "3:cjc102_2517"
    INDEX 01 01:13:45
  TRACK 87 AUDIO
    TITLE "0:"
    INDEX 01 01:14:70
  TRACK 88 AUDIO
    TITLE "2:cjc102_2518"
    INDEX 01 01:15:19
  TRACK 89 AUDIO
    TITLE "0:"
    INDEX 01 01:16:32
  TRACK 90 AUDIO
    TITLE "2:cjc102_2519"
    INDEX 01 01:16:61
  TRACK 91 AUDIO
    TITLE "0:"
    INDEX 01 01:18:04
  TRACK 92 AUDIO
    TITLE "3:cjc102_2520"
    INDEX 01 01:18:35
  TRACK 93 AUDIO
    TITLE "0:"
    INDEX 01 01:19:46
  TRACK 94 AUDIO
    TITLE "2:cjc102_2521"
    INDEX 01 01:19:48
  TRACK 95 AUDIO
    TITLE "0:"
    INDEX 01 01:20:67
  TRACK 96 AUDIO
    TITLE "2:cjc102_2522"
    INDEX 01 01:21:18
  TRACK 97 AUDIO
    TITLE "0:"
    INDEX 01 01:22:41
  TRACK 98 AUDIO
    TITLE "3:cjc102_2523"
    INDEX 01 01:22:60
  TRACK 99 AUDIO
    TITLE "0:"
    INDEX 01 01:24:12
  TRACK 100 AUDIO
    TITLE "2:cjc102_2524"
    INDEX 01 01:24:16
  TRACK 101 AUDIO
    TITLE "0:"
    INDEX 01 01:28:16
  TRACK 102 AUDIO
    TITLE "3:cjc102_2525"
    INDEX 01 01:29:13
  TRACK 103 AUDIO
    TITLE "0:"
    INDEX 01 01:30:34
  TRACK 104 AUDIO
    TITLE "2:cjc102_2526"
    INDEX 01 01:31:02
  TRACK 105 AUDIO
    TITLE "0:"
    INDEX 01 01:35:73
  TRACK 106 AUDIO
    TITLE "3:cjc102_2527"
    INDEX 01 01:36:43
  TRACK 107 AUDIO
    TITLE "0:"
    INDEX 01 01:37:71
  TRACK 108 AUDIO
    TITLE "2:cjc102_2528"
    INDEX 01 01:38:51
  TRACK 109 AUDIO
    TITLE "0:"
    INDEX 01 01:39:61
  TRACK 110 AUDIO
    TITLE "3:cjc102_2529"
    INDEX 01 01:40:60
  TRACK 111 AUDIO
    TITLE "0:"
    INDEX 01 01:42:16
  TRACK 112 AUDIO
    TITLE "2:cjc102_2530"
    INDEX 01 01:42:22
  TRACK 113 AUDIO
    TITLE "0:"
    INDEX 01 01:43:29
  TRACK 114 AUDIO
    TITLE "3:cjc102_2531"
    INDEX 01 01:44:52
  TRACK 115 AUDIO
    TITLE "0:"
    INDEX 01 01:45:69
  TRACK 116 AUDIO
    TITLE "2:cjc102_2532"
    INDEX 01 01:45:73
  TRACK 117 AUDIO
    TITLE "0:"
    INDEX 01 01:47:13
  TRACK 118 AUDIO
    TITLE "3:cjc102_2533"
    INDEX 01 01:48:60
  TRACK 119 AUDIO
    TITLE "0:"
    INDEX 01 01:50:19
  TRACK 120 AUDIO
    TITLE "2:cjc102_2534"
    INDEX 01 01:50:29
  TRACK 121 AUDIO
    TITLE "0:"
    INDEX 01 01:51:38
